<?xml version="1.0" encoding="iso-8859-1"?>
<!-- Generator: Adobe Illustrator 18.1.1, SVG Export Plug-In . SVG Version: 6.00 Build 0)  -->
<svg version="1.1" id="Capa_1" xmlns="http://www.w3.org/2000/svg" xmlns:xlink="http://www.w3.org/1999/xlink" x="0px" y="0px"
	 viewBox="0 0 25.693 25.693" style="enable-background:new 0 0 25.693 25.693;" xml:space="preserve">
<g>
	<g>
		<circle style="fill:#030104;" cx="9.761" cy="14.997" r="1.641"/>
		<path style="fill:#030104;" d="M21.92,12.942c-0.103-0.136-0.234-0.229-0.39-0.274C23.638,4.39,19.134,0,17.189,0H8.505
			C6.561,0,2.057,4.391,4.163,12.668c-0.153,0.045-0.286,0.139-0.388,0.274c-0.503,0.663-0.034,2.413,0.072,2.894
			c0.178,0.813,0.446,1.298,0.738,1.569c0.646,4.639,4.637,8.288,8.146,8.288c0.039,0,0.077-0.006,0.116-0.006
			c0.04,0,0.077,0.006,0.117,0.006c3.507,0,7.499-3.649,8.146-8.288c0.292-0.271,0.561-0.756,0.738-1.569
			C21.954,15.355,22.42,13.605,21.92,12.942z M8.856,0.857h7.983c1.545,0,2.98,2.116,3.72,4.111h-4.342
			c-0.498-1.387-1.812-2.385-3.369-2.385S9.977,3.581,9.479,4.968H5.135C5.875,2.973,7.31,0.857,8.856,0.857z M15.121,6.174
			c0,1.254-1.02,2.274-2.273,2.274s-2.274-1.02-2.274-2.274S11.594,3.9,12.848,3.9S15.121,4.921,15.121,6.174z M4.614,7.368h4.862
			c0.494,1.393,1.81,2.397,3.372,2.397c1.563,0,2.879-1.004,3.373-2.397h4.859l0.009,1.064c-0.632,0.261-4.073,1.588-8.242,1.684
			C8.68,10.02,5.237,8.693,4.606,8.432L4.614,7.368z M20.425,17.07c-0.091,0.053-0.152,0.144-0.168,0.248
			c-0.6,4.155-4.229,7.518-7.293,7.518c-0.039,0-0.117-0.007-0.117-0.007s-0.078,0.007-0.117,0.007
			c-3.064,0-6.694-3.362-7.293-7.518c-0.015-0.104-0.078-0.195-0.168-0.248c-0.877-0.508-1.16-3.36-0.878-3.578
			c0.176-0.136,0.353-0.099,0.501-0.004c0.059,0.037,0.135,0.035,0.192-0.003c0.058-0.04,0.087-0.109,0.074-0.178l-0.046-0.246
			c-0.274-1.441-0.431-2.284-0.515-2.793c1.414,0.528,4.55,1.513,8.251,1.588l0,0c3.701-0.076,6.836-1.06,8.252-1.588
			c-0.085,0.51-0.242,1.353-0.517,2.793l-0.046,0.246c-0.014,0.069,0.017,0.138,0.073,0.178c0.059,0.038,0.135,0.04,0.193,0.003
			c0.149-0.095,0.325-0.132,0.502,0.004C21.585,13.71,21.301,16.562,20.425,17.07z"/>
		<circle style="fill:#030104;" cx="15.931" cy="14.997" r="1.641"/>
	</g>
</g>
<g>
</g>
<g>
</g>
<g>
</g>
<g>
</g>
<g>
</g>
<g>
</g>
<g>
</g>
<g>
</g>
<g>
</g>
<g>
</g>
<g>
</g>
<g>
</g>
<g>
</g>
<g>
</g>
<g>
</g>
</svg>
