<?xml version="1.0" encoding="iso-8859-1"?>
<!-- Generator: Adobe Illustrator 18.1.1, SVG Export Plug-In . SVG Version: 6.00 Build 0)  -->
<svg version="1.1" id="Capa_1" xmlns="http://www.w3.org/2000/svg" xmlns:xlink="http://www.w3.org/1999/xlink" x="0px" y="0px"
	 viewBox="0 0 43.962 43.962" style="enable-background:new 0 0 43.962 43.962;" xml:space="preserve">
<g>
	<path style="fill:#010002;" d="M37.976,5.884c-0.43-1.675-1.485-3.082-2.978-3.964l-1.723-1.019C32.275,0.312,31.136,0,29.984,0
		c-2.281,0-4.418,1.22-5.578,3.182L6.677,33.175c-1.816,3.071-0.791,7.051,2.28,8.867l1.723,1.02c0.999,0.589,2.138,0.9,3.292,0.9
		c2.279,0,4.418-1.218,5.578-3.18L37.28,10.79C38.158,9.3,38.407,7.558,37.976,5.884z M17.957,39.841
		c-1.246,2.11-4.212,2.889-6.333,1.627L9.9,40.448c-2.195-1.297-2.927-4.139-1.629-6.334l8.865-14.996l9.685,5.729L17.957,39.841z"
		/>
</g>
<g>
</g>
<g>
</g>
<g>
</g>
<g>
</g>
<g>
</g>
<g>
</g>
<g>
</g>
<g>
</g>
<g>
</g>
<g>
</g>
<g>
</g>
<g>
</g>
<g>
</g>
<g>
</g>
<g>
</g>
</svg>
