<?xml version="1.0" encoding="iso-8859-1"?>
<!-- Generator: Adobe Illustrator 16.0.0, SVG Export Plug-In . SVG Version: 6.00 Build 0)  -->
<!DOCTYPE svg PUBLIC "-//W3C//DTD SVG 1.1//EN" "http://www.w3.org/Graphics/SVG/1.1/DTD/svg11.dtd">
<svg version="1.1" id="Capa_1" xmlns="http://www.w3.org/2000/svg" xmlns:xlink="http://www.w3.org/1999/xlink" x="0px" y="0px"
	 width="31.167px" height="31.168px" viewBox="0 0 31.167 31.168" style="enable-background:new 0 0 31.167 31.168;"
	 xml:space="preserve">
<g>
	<g>
		<path d="M12.372,13.776H9.708c-0.319,0-0.622,0-0.911,0.026c0.302,1.79,1.644,6.396,7.433,6.462
			c0.095-0.021,0.191-0.019,0.284,0.008c0.963-0.002,5.809-0.38,6.983-6.29c-0.59-0.141-1.257-0.206-2.012-0.206H18.69
			c2.259-1.179,3.806-3.518,3.806-6.228c0-0.222-0.011-0.454-0.031-0.669h-3.939c0.577-0.601,0.973-1.378,1.094-2.24h2.25
			c-0.684-1.495-1.879-2.705-3.363-3.406C17.767,0.472,16.735,0,15.593,0c-1.089,0-2.079,0.431-2.81,1.131
			c-1.59,0.682-2.874,1.938-3.592,3.509h2.376c0.122,0.862,0.517,1.64,1.095,2.24H8.594c-0.02,0.215-0.031,0.447-0.031,0.669
			C8.563,10.258,10.111,12.598,12.372,13.776z M15.593,1.134c1.616,0,2.931,1.315,2.931,2.932c0,1.616-1.315,2.93-2.931,2.93
			c-1.617,0-2.932-1.313-2.932-2.93C12.661,2.448,13.976,1.134,15.593,1.134z"/>
		<path d="M27.953,20.164c0,0,0.217-4.233-3.345-5.823c-1.379,6.907-7.378,7.324-8.185,7.334c-0.021,0.065-0.034,0.142-0.037,0.222
			c-0.01,0.488,0.41,1.111,1.186,1.756c1.378,1.147,1.65,2.81,0.693,4.229c-0.745,1.106-2.144,1.876-3.857,1.876
			c-0.825,0-1.722-0.179-2.654-0.584c-0.285,0.314-0.696,0.512-1.152,0.512c-0.859,0-1.557-0.695-1.557-1.557
			c0-0.857,0.697-1.555,1.557-1.555c0.852,0,1.545,0.687,1.555,1.535c2.319,1.028,4.327,0.387,5.167-0.861
			c0.627-0.934,0.449-1.95-0.479-2.723c-1.089-0.908-1.625-1.812-1.592-2.686c0.002-0.074,0.01-0.146,0.02-0.214
			c-5.891-0.56-7.292-5.742-7.608-7.652c-4.498,1.088-4.462,5.755-4.47,6.19l0.003,11.004h24.775L27.953,20.164z"/>
		<circle cx="15.593" cy="4.065" r="1.354"/>
	</g>
</g>
<g>
</g>
<g>
</g>
<g>
</g>
<g>
</g>
<g>
</g>
<g>
</g>
<g>
</g>
<g>
</g>
<g>
</g>
<g>
</g>
<g>
</g>
<g>
</g>
<g>
</g>
<g>
</g>
<g>
</g>
</svg>
